<?xml version="1.0" encoding="utf-8"?>
<!-- Generator: Adobe Illustrator 19.0.0, SVG Export Plug-In . SVG Version: 6.00 Build 0)  -->
<!DOCTYPE svg PUBLIC "-//W3C//DTD SVG 1.1//EN" "http://www.w3.org/Graphics/SVG/1.1/DTD/svg11.dtd">
<svg version="1.1" id="Layer_1" xmlns="http://www.w3.org/2000/svg" xmlns:xlink="http://www.w3.org/1999/xlink" x="0px" y="0px"
	 viewBox="-174.2 19.1 414.4 393.9" style="enable-background:new -174.2 19.1 414.4 393.9;" xml:space="preserve">
<style type="text/css">
	.st0{fill:#FFFFFF;}
</style>
<g>
	<path class="st0" d="M208.8,178.1c-10.4,0-19.8,0.3-28.5,0.5c-6.9,0.2-13.3,0.4-19.2,0.4c-40.1,0-60.7-7.8-113.9-70.9
		C-19.5,28.8-97,19.1-130.9,19.1c-10.1,0-16.3,0.9-17.3,1c-9.6,1.4-16.2,10.6-14.9,20.6c1.2,9.1,8.8,15.7,17.4,15.7
		c0.8,0,1.6-0.1,2.3-0.2c0.8-0.1,5.4-0.7,12.9-0.7c27.5,0,93.5,7.9,151.3,76.5c62,73.6,91.2,83.3,141.9,83.3c5.9,0,12-0.1,18.5-0.3
		c8.4-0.2,17.5-0.5,27.5-0.5c9.7,0,17.5-8.2,17.5-18.2C226.4,186.2,218.5,178.1,208.8,178.1z"/>
	<path class="st0" d="M189.6,292.6c-21.1,0-38.2,17.1-38.2,38.2c0,8.7,7.1,15.8,15.8,15.8s15.8-7.1,15.8-15.8c0-3.6,3-6.6,6.6-6.6
		c10.5,0,19,8.5,19,19c0,21-17.1,38.1-38.1,38.1h-13.3l-24.7-50.4c-0.1-53.4,52.4-45.4,61.7-92.5c-4.2,0.1-8.3,0.2-12.2,0.3
		c-6.7,0.2-13.1,0.3-19.1,0.3c-58.4,0-93.6-12.7-160.1-91.7C-49,85.9-107.7,79.2-130.5,79.2c-5.2,0-8.4,0.3-9.3,0.4v190.4
		c0,24.3,11.5,47,29.1,61.3l-24.5,49.9h-23.2c-8.7,0-15.8,7.1-15.8,15.8c0,8.7,7.1,15.8,15.8,15.8h328.8c38.5,0,69.7-31.3,69.7-69.7
		C240.2,315.3,217.5,292.6,189.6,292.6z M-106.7,282.6v-70c0-6.5,5.3-11.9,11.9-11.9s11.9,5.3,11.9,11.9v70
		c0,6.5-5.3,11.9-11.9,11.9S-106.7,289.2-106.7,282.6z M-99.9,381.3l17.7-36c4.2,0.9,8.4,1.5,12.8,1.5c0,0,115.5,0,174.5,0
		l16.9,34.5H-99.9z"/>
</g>
</svg>
